<svg viewBox="0 0 330 200" xmlns="http://www.w3.org/2000/svg"><g><g><g><g><g><line x1="61.953125" y1="178" x2="56.953125" y2="178" style="visibility: inherit;" fill="rgb(0, 0, 0)" stroke="rgb(204, 204, 204)" stroke-width="1px"></line><line x1="61.953125" y1="165.28571428571428" x2="56.953125" y2="165.28571428571428" style="visibility: inherit;" fill="rgb(0, 0, 0)" stroke="rgb(204, 204, 204)" stroke-width="1px"></line><line x1="61.953125" y1="152.57142857142856" x2="56.953125" y2="152.57142857142856" style="visibility: inherit;" fill="rgb(0, 0, 0)" stroke="rgb(204, 204, 204)" stroke-width="1px"></line><line x1="61.953125" y1="139.8571428571428" x2="56.953125" y2="139.8571428571428" style="visibility: inherit;" fill="rgb(0, 0, 0)" stroke="rgb(204, 204, 204)" stroke-width="1px"></line><line x1="61.953125" y1="127.14285714285707" x2="56.953125" y2="127.14285714285707" style="visibility: inherit;" fill="rgb(0, 0, 0)" stroke="rgb(204, 204, 204)" stroke-width="1px"></line><line x1="61.953125" y1="114.42857142857133" x2="56.953125" y2="114.42857142857133" style="visibility: inherit;" fill="rgb(0, 0, 0)" stroke="rgb(204, 204, 204)" stroke-width="1px"></line><line x1="61.953125" y1="101.7142857142856" x2="56.953125" y2="101.7142857142856" style="visibility: inherit;" fill="rgb(0, 0, 0)" stroke="rgb(204, 204, 204)" stroke-width="1px"></line><line x1="61.953125" y1="89.00000000000014" x2="56.953125" y2="89.00000000000014" style="visibility: inherit;" fill="rgb(0, 0, 0)" stroke="rgb(204, 204, 204)" stroke-width="1px"></line><line x1="61.953125" y1="76.2857142857144" x2="56.953125" y2="76.2857142857144" style="visibility: inherit;" fill="rgb(0, 0, 0)" stroke="rgb(204, 204, 204)" stroke-width="1px"></line><line x1="61.953125" y1="63.57142857142868" x2="56.953125" y2="63.57142857142868" style="visibility: inherit;" fill="rgb(0, 0, 0)" stroke="rgb(204, 204, 204)" stroke-width="1px"></line><line x1="61.953125" y1="50.85714285714293" x2="56.953125" y2="50.85714285714293" style="visibility: inherit;" fill="rgb(0, 0, 0)" stroke="rgb(204, 204, 204)" stroke-width="1px"></line><line x1="61.953125" y1="38.1428571428572" x2="56.953125" y2="38.1428571428572" style="visibility: inherit;" fill="rgb(0, 0, 0)" stroke="rgb(204, 204, 204)" stroke-width="1px"></line><line x1="61.953125" y1="25.428571428571477" x2="56.953125" y2="25.428571428571477" style="visibility: inherit;" fill="rgb(0, 0, 0)" stroke="rgb(204, 204, 204)" stroke-width="1px"></line><line x1="61.953125" y1="12.714285714285728" x2="56.953125" y2="12.714285714285728" style="visibility: inherit;" fill="rgb(0, 0, 0)" stroke="rgb(204, 204, 204)" stroke-width="1px"></line><line x1="61.953125" y1="0" x2="56.953125" y2="0" style="visibility: inherit;" fill="rgb(0, 0, 0)" stroke="rgb(204, 204, 204)" stroke-width="1px"></line></g><g transform="translate(51.953125, 0)"><text x="0" y="178" dx="0em" dy="0.3em" style="text-anchor: end; visibility: hidden; font-family: Roboto, sans-serif; font-size: 12px; font-weight: 200;" fill="rgb(50, 49, 63)" stroke="none" stroke-width="1px">0.905</text><text x="0" y="165.28571428571428" dx="0em" dy="0.3em" style="text-anchor: end; visibility: inherit; font-family: Roboto, sans-serif; font-size: 12px; font-weight: 200;" fill="rgb(50, 49, 63)" stroke="none" stroke-width="1px">0.91</text><text x="0" y="152.57142857142856" dx="0em" dy="0.3em" style="text-anchor: end; visibility: hidden; font-family: Roboto, sans-serif; font-size: 12px; font-weight: 200;" fill="rgb(50, 49, 63)" stroke="none" stroke-width="1px">0.915</text><text x="0" y="139.8571428571428" dx="0em" dy="0.3em" style="text-anchor: end; visibility: inherit; font-family: Roboto, sans-serif; font-size: 12px; font-weight: 200;" fill="rgb(50, 49, 63)" stroke="none" stroke-width="1px">0.92</text><text x="0" y="127.14285714285707" dx="0em" dy="0.3em" style="text-anchor: end; visibility: hidden; font-family: Roboto, sans-serif; font-size: 12px; font-weight: 200;" fill="rgb(50, 49, 63)" stroke="none" stroke-width="1px">0.925</text><text x="0" y="114.42857142857133" dx="0em" dy="0.3em" style="text-anchor: end; visibility: inherit; font-family: Roboto, sans-serif; font-size: 12px; font-weight: 200;" fill="rgb(50, 49, 63)" stroke="none" stroke-width="1px">0.93</text><text x="0" y="101.7142857142856" dx="0em" dy="0.3em" style="text-anchor: end; visibility: hidden; font-family: Roboto, sans-serif; font-size: 12px; font-weight: 200;" fill="rgb(50, 49, 63)" stroke="none" stroke-width="1px">0.935</text><text x="0" y="89.00000000000014" dx="0em" dy="0.3em" style="text-anchor: end; visibility: inherit; font-family: Roboto, sans-serif; font-size: 12px; font-weight: 200;" fill="rgb(50, 49, 63)" stroke="none" stroke-width="1px">0.94</text><text x="0" y="76.2857142857144" dx="0em" dy="0.3em" style="text-anchor: end; visibility: hidden; font-family: Roboto, sans-serif; font-size: 12px; font-weight: 200;" fill="rgb(50, 49, 63)" stroke="none" stroke-width="1px">0.945</text><text x="0" y="63.57142857142868" dx="0em" dy="0.3em" style="text-anchor: end; visibility: inherit; font-family: Roboto, sans-serif; font-size: 12px; font-weight: 200;" fill="rgb(50, 49, 63)" stroke="none" stroke-width="1px">0.95</text><text x="0" y="50.85714285714293" dx="0em" dy="0.3em" style="text-anchor: end; visibility: hidden; font-family: Roboto, sans-serif; font-size: 12px; font-weight: 200;" fill="rgb(50, 49, 63)" stroke="none" stroke-width="1px">0.955</text><text x="0" y="38.1428571428572" dx="0em" dy="0.3em" style="text-anchor: end; visibility: inherit; font-family: Roboto, sans-serif; font-size: 12px; font-weight: 200;" fill="rgb(50, 49, 63)" stroke="none" stroke-width="1px">0.96</text><text x="0" y="25.428571428571477" dx="0em" dy="0.3em" style="text-anchor: end; visibility: hidden; font-family: Roboto, sans-serif; font-size: 12px; font-weight: 200;" fill="rgb(50, 49, 63)" stroke="none" stroke-width="1px">0.965</text><text x="0" y="12.714285714285728" dx="0em" dy="0.3em" style="text-anchor: end; visibility: inherit; font-family: Roboto, sans-serif; font-size: 12px; font-weight: 200;" fill="rgb(50, 49, 63)" stroke="none" stroke-width="1px">0.97</text><text x="0" y="0" dx="0em" dy="0.3em" style="text-anchor: end; visibility: hidden; font-family: Roboto, sans-serif; font-size: 12px; font-weight: 200;" fill="rgb(50, 49, 63)" stroke="none" stroke-width="1px">0.975</text></g><line x1="61.953125" y1="0" x2="61.953125" y2="178" fill="rgb(0, 0, 0)" stroke="rgb(204, 204, 204)" stroke-width="1px"></line></g></g><g transform="translate(61, 0)" clip-path="url(#clip_0)"><clipPath id="clip_0"><rect width="268" height="178"></rect></clipPath><g><g><g><line x1="0" y1="0" x2="0" y2="178" fill="rgb(0, 0, 0)" stroke="rgb(60, 60, 60)" stroke-width="1px" opacity="0.25"></line><line x1="29.78298611111111" y1="0" x2="29.78298611111111" y2="178" fill="rgb(0, 0, 0)" stroke="rgb(60, 60, 60)" stroke-width="1px" opacity="0.25"></line><line x1="59.56597222222222" y1="0" x2="59.56597222222222" y2="178" fill="rgb(0, 0, 0)" stroke="rgb(60, 60, 60)" stroke-width="1px" opacity="0.25"></line><line x1="89.34895833333333" y1="0" x2="89.34895833333333" y2="178" fill="rgb(0, 0, 0)" stroke="rgb(60, 60, 60)" stroke-width="1px" opacity="0.25"></line><line x1="119.13194444444444" y1="0" x2="119.13194444444444" y2="178" fill="rgb(0, 0, 0)" stroke="rgb(60, 60, 60)" stroke-width="1px" opacity="0.25"></line><line x1="148.91493055555557" y1="0" x2="148.91493055555557" y2="178" fill="rgb(0, 0, 0)" stroke="rgb(60, 60, 60)" stroke-width="1px" opacity="0.25"></line><line x1="178.69791666666666" y1="0" x2="178.69791666666666" y2="178" fill="rgb(0, 0, 0)" stroke="rgb(60, 60, 60)" stroke-width="1px" opacity="0.25"></line><line x1="208.48090277777777" y1="0" x2="208.48090277777777" y2="178" fill="rgb(0, 0, 0)" stroke="rgb(60, 60, 60)" stroke-width="1px" opacity="0.25"></line><line x1="238.26388888888889" y1="0" x2="238.26388888888889" y2="178" fill="rgb(0, 0, 0)" stroke="rgb(60, 60, 60)" stroke-width="1px" opacity="0.25"></line><line x1="268.046875" y1="0" x2="268.046875" y2="178" fill="rgb(0, 0, 0)" stroke="rgb(60, 60, 60)" stroke-width="1px" opacity="0.25"></line></g><g><line x1="0" y1="178" x2="268.046875" y2="178" fill="rgb(0, 0, 0)" stroke="rgb(60, 60, 60)" stroke-width="1px" opacity="0.25"></line><line x1="0" y1="165.28571428571428" x2="268.046875" y2="165.28571428571428" fill="rgb(0, 0, 0)" stroke="rgb(60, 60, 60)" stroke-width="1px" opacity="0.25"></line><line x1="0" y1="152.57142857142856" x2="268.046875" y2="152.57142857142856" fill="rgb(0, 0, 0)" stroke="rgb(60, 60, 60)" stroke-width="1px" opacity="0.25"></line><line x1="0" y1="139.8571428571428" x2="268.046875" y2="139.8571428571428" fill="rgb(0, 0, 0)" stroke="rgb(60, 60, 60)" stroke-width="1px" opacity="0.25"></line><line x1="0" y1="127.14285714285707" x2="268.046875" y2="127.14285714285707" fill="rgb(0, 0, 0)" stroke="rgb(60, 60, 60)" stroke-width="1px" opacity="0.25"></line><line x1="0" y1="114.42857142857133" x2="268.046875" y2="114.42857142857133" fill="rgb(0, 0, 0)" stroke="rgb(60, 60, 60)" stroke-width="1px" opacity="0.25"></line><line x1="0" y1="101.7142857142856" x2="268.046875" y2="101.7142857142856" fill="rgb(0, 0, 0)" stroke="rgb(60, 60, 60)" stroke-width="1px" opacity="0.25"></line><line x1="0" y1="89.00000000000014" x2="268.046875" y2="89.00000000000014" fill="rgb(0, 0, 0)" stroke="rgb(60, 60, 60)" stroke-width="1px" opacity="0.25"></line><line x1="0" y1="76.2857142857144" x2="268.046875" y2="76.2857142857144" fill="rgb(0, 0, 0)" stroke="rgb(60, 60, 60)" stroke-width="1px" opacity="0.25"></line><line x1="0" y1="63.57142857142868" x2="268.046875" y2="63.57142857142868" fill="rgb(0, 0, 0)" stroke="rgb(60, 60, 60)" stroke-width="1px" opacity="0.25"></line><line x1="0" y1="50.85714285714293" x2="268.046875" y2="50.85714285714293" fill="rgb(0, 0, 0)" stroke="rgb(60, 60, 60)" stroke-width="1px" opacity="0.25"></line><line x1="0" y1="38.1428571428572" x2="268.046875" y2="38.1428571428572" fill="rgb(0, 0, 0)" stroke="rgb(60, 60, 60)" stroke-width="1px" opacity="0.25"></line><line x1="0" y1="25.428571428571477" x2="268.046875" y2="25.428571428571477" fill="rgb(0, 0, 0)" stroke="rgb(60, 60, 60)" stroke-width="1px" opacity="0.25"></line><line x1="0" y1="12.714285714285728" x2="268.046875" y2="12.714285714285728" fill="rgb(0, 0, 0)" stroke="rgb(60, 60, 60)" stroke-width="1px" opacity="0.25"></line><line x1="0" y1="0" x2="268.046875" y2="0" fill="rgb(0, 0, 0)" stroke="rgb(60, 60, 60)" stroke-width="1px" opacity="0.25"></line></g></g></g><g><g><line x1="0" y1="2479.285714285716" x2="268.046875" y2="2479.285714285716" fill="rgb(0, 0, 0)" stroke="rgb(153, 153, 153)" stroke-width="1.5px"></line></g></g><g><g><line x1="29.78298611111111" y1="0" x2="29.78298611111111" y2="178" fill="rgb(0, 0, 0)" stroke="rgb(153, 153, 153)" stroke-width="1.5px"></line></g></g><g><g><g><g><g><path stroke="rgb(255, 112, 67)" stroke-width="2px" d="M41.547265625,249.9491407891284L44.52556423611111,160.28031903687932L47.50386284722222,116.89044525675622L50.48216145833333,87.59085176805422L53.460460069444444,74.0809447146644L56.43875868055555,85.68831018652799L59.41705729166667,53.60290651681252L62.39535590277778,46.43932607972921L65.37365451388888,53.108022663049695L68.351953125,55.608034143470924L71.33025173611112,49.6503303527361L74.30855034722222,34.65033293808903L77.28684895833334,46.52011085766215L80.26514756944445,44.698588548862176L83.24344618055555,41.61906358718166L86.22174479166667,45.73173340470721L89.20004340277778,50.185854678269294L92.1783420138889,59.3148380690199L95.156640625,51.87898354085595L98.13493923611111,38.97438642729587L101.11323784722222,29.74173096567796L104.09153645833332,35.625189234819345L107.06983506944444,47.598348250627346L110.04813368055555,51.30566453049285L113.02643229166667,54.02670396069871L116.00473090277778,51.189458831017625L118.9830295138889,49.983764317777315L121.96132812500001,43.30052556131532L124.93962673611111,41.27719017575871L127.91792534722222,32.61341190602826L130.89622395833334,32.87831500834976L133.87452256944445,46.4468553096912L136.85282118055557,35.71521128940968L139.83111979166665,36.72600177990108L142.8094184027778,28.88939568169895L145.78771701388888,39.086985646024516L148.76601562500002,31.79594137786814L151.7443142361111,33.87778804267631L154.72261284722222,40.59006568597875L157.70091145833334,48.590646556754336L160.67921006944445,46.43787007653708L163.65750868055554,44.15290061711322L166.63580729166668,38.808704655648846L169.61410590277777,30.63566922165481L172.59240451388888,19.772026532748608L175.570703125,23.683528419701997L178.5490017361111,36.956768837642464L181.5273003472222,35.4843291597215L184.50559895833334,44.533901067287765L187.48389756944445,32.08417992606508L190.46219618055557,41.0038561699343L193.44049479166668,29.469501201953104L196.41879340277777,28.508709649742933L199.3970920138889,38.361922218419785L202.375390625,36.824072973908486L205.3536892361111,48.31765807006035L208.33198784722222,30.381219842035158L211.31028645833334,40.47873190522137L214.28858506944442,35.114248071704125L217.26688368055557,37.35872741445126L220.24518229166665,28.27572752009925L223.22348090277777,13.886195440630832L226.2017795138889,17.17211905009289L229.180078125,12.190548215770006L232.15837673611114,15.658078929462047L235.13667534722222,24.691722357677158L238.11497395833334,23.65543520032016L241.09327256944445,22.040359334477795L244.07157118055557,29.01774238640095L247.04986979166665,28.23765436041205L250.0281684027778,21.80978011624721L253.00646701388888,18.44970735546243" style="fill: none;" fill="none"></path></g></g></g></g><g opacity="0.2"><g><g><g><path stroke="rgb(255, 112, 67)" stroke-width="2px" d="M38.568967013888894,264.2187500000001L41.547265625,156.19698660714292L44.52556423611111,43.20870535714283L47.50386284722222,56.86662946428569L50.48216145833333,45.69196428571425L53.460460069444444,54.38337053571427L56.43875868055555,102.80691964285717L59.41705729166667,5.959821428571377L62.39535590277778,35.75892857142854L65.37365451388888,63.07477678571427L68.351953125,59.349888392857125L71.33025173611112,40.725446428571395L74.30855034722222,12.167968749999961L77.28684895833334,64.31640624999999L80.26514756944445,41.9670758928571L83.24344618055555,37.00055803571425L86.22174479166667,51.90011160714283L89.20004340277778,56.86662946428569L92.1783420138889,73.0078125L95.156640625,40.725446428571395L98.13493923611111,19.617745535714253L101.11323784722222,15.892857142857107L104.09153645833332,44.45033482142854L107.06983506944444,65.55803571428571L110.04813368055555,56.86662946428569L113.02643229166667,58.108258928571416L116.00473090277778,46.93359374999998L118.9830295138889,48.17522321428569L121.96132812500001,33.2756696428571L124.93962673611111,38.24218749999996L127.91792534722222,19.617745535714253L130.89622395833334,33.2756696428571L133.87452256944445,66.79966517857142L136.85282118055557,19.617745535714253L139.83111979166665,38.24218749999996L142.8094184027778,17.134486607142815L145.78771701388888,54.38337053571427L148.76601562500002,20.85937499999996L151.7443142361111,37.00055803571425L154.72261284722222,50.658482142857125L157.70091145833334,60.59151785714283L160.67921006944445,43.20870535714283L163.65750868055554,40.725446428571395L166.63580729166668,30.79241071428569L169.61410590277777,18.376116071428523L172.59240451388888,3.4765624999999405L175.570703125,29.55078124999996L178.5490017361111,56.86662946428569L181.5273003472222,33.2756696428571L184.50559895833334,58.108258928571416L187.48389756944445,13.40959821428567L190.46219618055557,54.38337053571427L193.44049479166668,12.167968749999961L196.41879340277777,27.067522321428545L199.3970920138889,53.14174107142854L202.375390625,34.51729910714283L205.3536892361111,65.55803571428571L208.33198784722222,3.4765624999999405L211.31028645833334,55.62499999999998L214.28858506944442,27.067522321428545L217.26688368055557,40.725446428571395L220.24518229166665,14.651227678571377L223.22348090277777,-7.698102678571496L226.2017795138889,22.10100446428567L229.180078125,4.718191964285669L232.15837673611114,20.85937499999996L235.13667534722222,38.24218749999996L238.11497395833334,22.10100446428567L241.09327256944445,19.617745535714253L244.07157118055557,39.48381696428569L247.04986979166665,27.067522321428545L250.0281684027778,12.167968749999961L253.00646701388888,13.40959821428567" style="fill: none;" fill="none"></path></g></g></g></g></g></g><g transform="translate(61, 178)" clip-path="url(#clip_1)"><clipPath id="clip_1"><rect width="268" height="22"></rect></clipPath><g><g><line x1="0" y1="0" x2="0" y2="5" style="visibility: inherit;" fill="rgb(0, 0, 0)" stroke="rgb(204, 204, 204)" stroke-width="1px"></line><line x1="29.78298611111111" y1="0" x2="29.78298611111111" y2="5" style="visibility: inherit;" fill="rgb(0, 0, 0)" stroke="rgb(204, 204, 204)" stroke-width="1px"></line><line x1="59.56597222222222" y1="0" x2="59.56597222222222" y2="5" style="visibility: inherit;" fill="rgb(0, 0, 0)" stroke="rgb(204, 204, 204)" stroke-width="1px"></line><line x1="89.34895833333333" y1="0" x2="89.34895833333333" y2="5" style="visibility: inherit;" fill="rgb(0, 0, 0)" stroke="rgb(204, 204, 204)" stroke-width="1px"></line><line x1="119.13194444444444" y1="0" x2="119.13194444444444" y2="5" style="visibility: inherit;" fill="rgb(0, 0, 0)" stroke="rgb(204, 204, 204)" stroke-width="1px"></line><line x1="148.91493055555557" y1="0" x2="148.91493055555557" y2="5" style="visibility: inherit;" fill="rgb(0, 0, 0)" stroke="rgb(204, 204, 204)" stroke-width="1px"></line><line x1="178.69791666666666" y1="0" x2="178.69791666666666" y2="5" style="visibility: inherit;" fill="rgb(0, 0, 0)" stroke="rgb(204, 204, 204)" stroke-width="1px"></line><line x1="208.48090277777777" y1="0" x2="208.48090277777777" y2="5" style="visibility: inherit;" fill="rgb(0, 0, 0)" stroke="rgb(204, 204, 204)" stroke-width="1px"></line><line x1="238.26388888888889" y1="0" x2="238.26388888888889" y2="5" style="visibility: inherit;" fill="rgb(0, 0, 0)" stroke="rgb(204, 204, 204)" stroke-width="1px"></line><line x1="268.046875" y1="0" x2="268.046875" y2="5" style="visibility: inherit;" fill="rgb(0, 0, 0)" stroke="rgb(204, 204, 204)" stroke-width="1px"></line></g><g transform="translate(0, 8)"><text x="0" y="0" dx="0em" dy="0.95em" style="text-anchor: middle; visibility: hidden; font-family: Roboto, sans-serif; font-size: 12px; font-weight: 200;" fill="rgb(50, 49, 63)" stroke="none" stroke-width="1px">-200</text><text x="29.78298611111111" y="0" dx="0em" dy="0.95em" style="text-anchor: middle; visibility: inherit; font-family: Roboto, sans-serif; font-size: 12px; font-weight: 200;" fill="rgb(50, 49, 63)" stroke="none" stroke-width="1px">0</text><text x="59.56597222222222" y="0" dx="0em" dy="0.95em" style="text-anchor: middle; visibility: inherit; font-family: Roboto, sans-serif; font-size: 12px; font-weight: 200;" fill="rgb(50, 49, 63)" stroke="none" stroke-width="1px">200</text><text x="89.34895833333333" y="0" dx="0em" dy="0.95em" style="text-anchor: middle; visibility: inherit; font-family: Roboto, sans-serif; font-size: 12px; font-weight: 200;" fill="rgb(50, 49, 63)" stroke="none" stroke-width="1px">400</text><text x="119.13194444444444" y="0" dx="0em" dy="0.95em" style="text-anchor: middle; visibility: inherit; font-family: Roboto, sans-serif; font-size: 12px; font-weight: 200;" fill="rgb(50, 49, 63)" stroke="none" stroke-width="1px">600</text><text x="148.91493055555557" y="0" dx="0em" dy="0.95em" style="text-anchor: middle; visibility: inherit; font-family: Roboto, sans-serif; font-size: 12px; font-weight: 200;" fill="rgb(50, 49, 63)" stroke="none" stroke-width="1px">800</text><text x="178.69791666666666" y="0" dx="0em" dy="0.95em" style="text-anchor: middle; visibility: inherit; font-family: Roboto, sans-serif; font-size: 12px; font-weight: 200;" fill="rgb(50, 49, 63)" stroke="none" stroke-width="1px">1k</text><text x="208.48090277777777" y="0" dx="0em" dy="0.95em" style="text-anchor: middle; visibility: inherit; font-family: Roboto, sans-serif; font-size: 12px; font-weight: 200;" fill="rgb(50, 49, 63)" stroke="none" stroke-width="1px">1.2k</text><text x="238.26388888888889" y="0" dx="0em" dy="0.95em" style="text-anchor: middle; visibility: inherit; font-family: Roboto, sans-serif; font-size: 12px; font-weight: 200;" fill="rgb(50, 49, 63)" stroke="none" stroke-width="1px">1.4k</text><text x="268.046875" y="0" dx="0em" dy="0.95em" style="text-anchor: middle; visibility: hidden; font-family: Roboto, sans-serif; font-size: 12px; font-weight: 200;" fill="rgb(50, 49, 63)" stroke="none" stroke-width="1px">1.6k</text></g><line x1="0" y1="0" x2="268.046875" y2="0" fill="rgb(0, 0, 0)" stroke="rgb(204, 204, 204)" stroke-width="1px"></line></g></g></g></g></svg>