<svg viewBox="0 0 330 200" xmlns="http://www.w3.org/2000/svg"><g><g><g><g><g><line x1="61.953125" y1="178" x2="56.953125" y2="178" style="visibility: inherit;" fill="rgb(0, 0, 0)" stroke="rgb(204, 204, 204)" stroke-width="1px"></line><line x1="61.953125" y1="158.2222222222222" x2="56.953125" y2="158.2222222222222" style="visibility: inherit;" fill="rgb(0, 0, 0)" stroke="rgb(204, 204, 204)" stroke-width="1px"></line><line x1="61.953125" y1="138.44444444444446" x2="56.953125" y2="138.44444444444446" style="visibility: inherit;" fill="rgb(0, 0, 0)" stroke="rgb(204, 204, 204)" stroke-width="1px"></line><line x1="61.953125" y1="118.66666666666669" x2="56.953125" y2="118.66666666666669" style="visibility: inherit;" fill="rgb(0, 0, 0)" stroke="rgb(204, 204, 204)" stroke-width="1px"></line><line x1="61.953125" y1="98.8888888888889" x2="56.953125" y2="98.8888888888889" style="visibility: inherit;" fill="rgb(0, 0, 0)" stroke="rgb(204, 204, 204)" stroke-width="1px"></line><line x1="61.953125" y1="79.11111111111113" x2="56.953125" y2="79.11111111111113" style="visibility: inherit;" fill="rgb(0, 0, 0)" stroke="rgb(204, 204, 204)" stroke-width="1px"></line><line x1="61.953125" y1="59.33333333333332" x2="56.953125" y2="59.33333333333332" style="visibility: inherit;" fill="rgb(0, 0, 0)" stroke="rgb(204, 204, 204)" stroke-width="1px"></line><line x1="61.953125" y1="39.55555555555555" x2="56.953125" y2="39.55555555555555" style="visibility: inherit;" fill="rgb(0, 0, 0)" stroke="rgb(204, 204, 204)" stroke-width="1px"></line><line x1="61.953125" y1="19.777777777777768" x2="56.953125" y2="19.777777777777768" style="visibility: inherit;" fill="rgb(0, 0, 0)" stroke="rgb(204, 204, 204)" stroke-width="1px"></line><line x1="61.953125" y1="0" x2="56.953125" y2="0" style="visibility: inherit;" fill="rgb(0, 0, 0)" stroke="rgb(204, 204, 204)" stroke-width="1px"></line></g><g transform="translate(51.953125, 0)"><text x="0" y="178" dx="0em" dy="0.3em" style="text-anchor: end; visibility: hidden; font-family: Roboto, sans-serif; font-size: 12px; font-weight: 200;" fill="rgb(50, 49, 63)" stroke="none" stroke-width="1px">0.012</text><text x="0" y="158.2222222222222" dx="0em" dy="0.3em" style="text-anchor: end; visibility: inherit; font-family: Roboto, sans-serif; font-size: 12px; font-weight: 200;" fill="rgb(50, 49, 63)" stroke="none" stroke-width="1px">0.014</text><text x="0" y="138.44444444444446" dx="0em" dy="0.3em" style="text-anchor: end; visibility: hidden; font-family: Roboto, sans-serif; font-size: 12px; font-weight: 200;" fill="rgb(50, 49, 63)" stroke="none" stroke-width="1px">0.016</text><text x="0" y="118.66666666666669" dx="0em" dy="0.3em" style="text-anchor: end; visibility: inherit; font-family: Roboto, sans-serif; font-size: 12px; font-weight: 200;" fill="rgb(50, 49, 63)" stroke="none" stroke-width="1px">0.018</text><text x="0" y="98.8888888888889" dx="0em" dy="0.3em" style="text-anchor: end; visibility: hidden; font-family: Roboto, sans-serif; font-size: 12px; font-weight: 200;" fill="rgb(50, 49, 63)" stroke="none" stroke-width="1px">0.02</text><text x="0" y="79.11111111111113" dx="0em" dy="0.3em" style="text-anchor: end; visibility: inherit; font-family: Roboto, sans-serif; font-size: 12px; font-weight: 200;" fill="rgb(50, 49, 63)" stroke="none" stroke-width="1px">0.022</text><text x="0" y="59.33333333333332" dx="0em" dy="0.3em" style="text-anchor: end; visibility: hidden; font-family: Roboto, sans-serif; font-size: 12px; font-weight: 200;" fill="rgb(50, 49, 63)" stroke="none" stroke-width="1px">0.024</text><text x="0" y="39.55555555555555" dx="0em" dy="0.3em" style="text-anchor: end; visibility: inherit; font-family: Roboto, sans-serif; font-size: 12px; font-weight: 200;" fill="rgb(50, 49, 63)" stroke="none" stroke-width="1px">0.026</text><text x="0" y="19.777777777777768" dx="0em" dy="0.3em" style="text-anchor: end; visibility: hidden; font-family: Roboto, sans-serif; font-size: 12px; font-weight: 200;" fill="rgb(50, 49, 63)" stroke="none" stroke-width="1px">0.028</text><text x="0" y="0" dx="0em" dy="0.3em" style="text-anchor: end; visibility: hidden; font-family: Roboto, sans-serif; font-size: 12px; font-weight: 200;" fill="rgb(50, 49, 63)" stroke="none" stroke-width="1px">0.03</text></g><line x1="61.953125" y1="0" x2="61.953125" y2="178" fill="rgb(0, 0, 0)" stroke="rgb(204, 204, 204)" stroke-width="1px"></line></g></g><g transform="translate(61, 0)" clip-path="url(#clip_0)"><clipPath id="clip_0"><rect width="268" height="178"></rect></clipPath><g><g><g><line x1="0" y1="0" x2="0" y2="178" fill="rgb(0, 0, 0)" stroke="rgb(60, 60, 60)" stroke-width="1px" opacity="0.25"></line><line x1="29.78298611111111" y1="0" x2="29.78298611111111" y2="178" fill="rgb(0, 0, 0)" stroke="rgb(60, 60, 60)" stroke-width="1px" opacity="0.25"></line><line x1="59.56597222222222" y1="0" x2="59.56597222222222" y2="178" fill="rgb(0, 0, 0)" stroke="rgb(60, 60, 60)" stroke-width="1px" opacity="0.25"></line><line x1="89.34895833333333" y1="0" x2="89.34895833333333" y2="178" fill="rgb(0, 0, 0)" stroke="rgb(60, 60, 60)" stroke-width="1px" opacity="0.25"></line><line x1="119.13194444444444" y1="0" x2="119.13194444444444" y2="178" fill="rgb(0, 0, 0)" stroke="rgb(60, 60, 60)" stroke-width="1px" opacity="0.25"></line><line x1="148.91493055555557" y1="0" x2="148.91493055555557" y2="178" fill="rgb(0, 0, 0)" stroke="rgb(60, 60, 60)" stroke-width="1px" opacity="0.25"></line><line x1="178.69791666666666" y1="0" x2="178.69791666666666" y2="178" fill="rgb(0, 0, 0)" stroke="rgb(60, 60, 60)" stroke-width="1px" opacity="0.25"></line><line x1="208.48090277777777" y1="0" x2="208.48090277777777" y2="178" fill="rgb(0, 0, 0)" stroke="rgb(60, 60, 60)" stroke-width="1px" opacity="0.25"></line><line x1="238.26388888888889" y1="0" x2="238.26388888888889" y2="178" fill="rgb(0, 0, 0)" stroke="rgb(60, 60, 60)" stroke-width="1px" opacity="0.25"></line><line x1="268.046875" y1="0" x2="268.046875" y2="178" fill="rgb(0, 0, 0)" stroke="rgb(60, 60, 60)" stroke-width="1px" opacity="0.25"></line></g><g><line x1="0" y1="178" x2="268.046875" y2="178" fill="rgb(0, 0, 0)" stroke="rgb(60, 60, 60)" stroke-width="1px" opacity="0.25"></line><line x1="0" y1="158.2222222222222" x2="268.046875" y2="158.2222222222222" fill="rgb(0, 0, 0)" stroke="rgb(60, 60, 60)" stroke-width="1px" opacity="0.25"></line><line x1="0" y1="138.44444444444446" x2="268.046875" y2="138.44444444444446" fill="rgb(0, 0, 0)" stroke="rgb(60, 60, 60)" stroke-width="1px" opacity="0.25"></line><line x1="0" y1="118.66666666666669" x2="268.046875" y2="118.66666666666669" fill="rgb(0, 0, 0)" stroke="rgb(60, 60, 60)" stroke-width="1px" opacity="0.25"></line><line x1="0" y1="98.8888888888889" x2="268.046875" y2="98.8888888888889" fill="rgb(0, 0, 0)" stroke="rgb(60, 60, 60)" stroke-width="1px" opacity="0.25"></line><line x1="0" y1="79.11111111111113" x2="268.046875" y2="79.11111111111113" fill="rgb(0, 0, 0)" stroke="rgb(60, 60, 60)" stroke-width="1px" opacity="0.25"></line><line x1="0" y1="59.33333333333332" x2="268.046875" y2="59.33333333333332" fill="rgb(0, 0, 0)" stroke="rgb(60, 60, 60)" stroke-width="1px" opacity="0.25"></line><line x1="0" y1="39.55555555555555" x2="268.046875" y2="39.55555555555555" fill="rgb(0, 0, 0)" stroke="rgb(60, 60, 60)" stroke-width="1px" opacity="0.25"></line><line x1="0" y1="19.777777777777768" x2="268.046875" y2="19.777777777777768" fill="rgb(0, 0, 0)" stroke="rgb(60, 60, 60)" stroke-width="1px" opacity="0.25"></line><line x1="0" y1="0" x2="268.046875" y2="0" fill="rgb(0, 0, 0)" stroke="rgb(60, 60, 60)" stroke-width="1px" opacity="0.25"></line></g></g></g><g><g><line x1="0" y1="296.6666666666667" x2="268.046875" y2="296.6666666666667" fill="rgb(0, 0, 0)" stroke="rgb(153, 153, 153)" stroke-width="1.5px"></line></g></g><g><g><line x1="29.78298611111111" y1="0" x2="29.78298611111111" y2="178" fill="rgb(0, 0, 0)" stroke="rgb(153, 153, 153)" stroke-width="1.5px"></line></g></g><g><g><g><g><g><path stroke="rgb(255, 112, 67)" stroke-width="2px" d="M41.547265625,-80.49266323763757L44.52556423611111,13.928602828636825L47.50386284722222,69.53622097366453L50.48216145833333,89.61750199752362L53.460460069444444,113.1972416505077L56.43875868055555,99.65456526210212L59.41705729166667,114.93106161566716L62.39535590277778,118.22605866236901L65.37365451388888,109.81959096690375L68.351953125,82.14374544436629L71.33025173611112,101.28822457265964L74.30855034722222,123.02678853437175L77.28684895833334,121.5490254520171L80.26514756944445,135.198316338093L83.24344618055555,127.35505987516662L86.22174479166667,124.48457417867398L89.20004340277778,96.18435212354224L92.1783420138889,122.68065194987439L95.156640625,136.27574052943027L98.13493923611111,149.28890576934842L101.11323784722222,168.3232841735818L104.09153645833332,159.5974596027779L107.06983506944444,150.16249910326457L110.04813368055555,147.85295553920866L113.02643229166667,137.8058210114943L116.00473090277778,131.7995444916561L118.9830295138889,122.56915475743227L121.96132812500001,130.23207733507493L124.93962673611111,147.5877306103304L127.91792534722222,153.64795109697448L130.89622395833334,109.64168176440565L133.87452256944445,70.14649597692024L136.85282118055557,103.52988485886615L139.83111979166665,96.3990669700247L142.8094184027778,123.17531495814461L145.78771701388888,85.40828887533789L148.76601562500002,104.29366243767967L151.7443142361111,128.95483637906452L154.72261284722222,144.82596805661822L157.70091145833334,129.701913060172L160.67921006944445,131.2335555591066L163.65750868055554,135.3465544621512L166.63580729166668,162.03350878566238L169.61410590277777,150.58973556799424L172.59240451388888,171.04250905585155L175.570703125,154.16817273610403L178.5490017361111,144.30450882057463L181.5273003472222,130.29495966087345L184.50559895833334,75.68045222402617L187.48389756944445,98.01169501597877L190.46219618055557,107.1510807717583L193.44049479166668,122.49274271994251L196.41879340277777,108.38502279216497L199.3970920138889,90.62757347136336L202.375390625,116.7518981907048L205.3536892361111,147.7035672169254L208.33198784722222,97.44029006568297L211.31028645833334,99.66977146325472L214.28858506944442,116.06372900706006L217.26688368055557,103.46551724679804L220.24518229166665,106.08546611379775L223.22348090277777,134.76880414313797L226.2017795138889,125.8980382397708L229.180078125,152.8946606035659L232.15837673611114,133.5814101327834L235.13667534722222,88.1141070754289L238.11497395833334,110.79275574007718L241.09327256944445,135.1721089806635L244.07157118055557,97.14738877970845L247.04986979166665,120.50705961136676L250.0281684027778,140.56693439565626L253.00646701388888,131.97273840767986" style="fill: none;" fill="none"></path></g></g></g></g><g opacity="0.2"><g><g><g><path stroke="rgb(255, 112, 67)" stroke-width="2px" d="M32.612369791666666,-201.29358705547128L35.59066840277777,11.762785630093669L38.568967013888894,-95.7171173890432L41.547265625,-78.47695279452537L44.52556423611111,137.20500780476462L47.50386284722222,146.4615756107701L50.48216145833333,118.3340551621384L53.460460069444444,147.57672843005923L56.43875868055555,79.68174811866548L59.41705729166667,137.61487831672034L62.39535590277778,123.13866885171997L65.37365451388888,97.25563704967499L68.351953125,40.72034359806112L71.33025173611112,129.96743723750114L74.30855034722222,155.60908161103725L77.28684895833334,119.3334230615033L80.26514756944445,155.6664767447445L83.24344618055555,115.59216658274332L86.22174479166667,120.17928292353946L89.20004340277778,53.736605793237686L92.1783420138889,162.42364856931897L95.156640625,156.66792604658337L98.13493923611111,168.80839670697847L101.11323784722222,196.8746262995733L104.09153645833332,146.5087847659985L107.06983506944444,136.01009858979117L110.04813368055555,144.38864610261388L113.02643229166667,122.73513464464081L116.00473090277778,122.79013524452844L118.9830295138889,108.72357525759274L121.96132812500001,141.72645866043038L124.93962673611111,173.62120707001952L127.91792534722222,162.7382811034719L130.89622395833334,43.63228091763124L133.87452256944445,10.903718993067722L136.85282118055557,153.60496732095876L139.83111979166665,85.70284024708802L142.8094184027778,163.33968669176102L145.78771701388888,28.757749961482144L148.76601562500002,132.62172271807987L151.7443142361111,165.94659724169307L154.72261284722222,168.6326655538546L157.70091145833334,107.01583057641983L160.67921006944445,133.53101930684514L163.65750868055554,141.51605281564923L166.63580729166668,202.06394026676816L169.61410590277777,133.4240757425626L172.59240451388888,201.7216692864895L175.570703125,128.85666825705104L178.5490017361111,129.5090129474799L181.5273003472222,109.28063592149151L184.50559895833334,-6.2413089308473975L187.48389756944445,131.50855920381017L190.46219618055557,120.86015940540368L193.44049479166668,145.50523564219475L196.41879340277777,87.22344290051196L199.3970920138889,63.99139949017099L202.375390625,155.9383852697081L205.3536892361111,194.13107075624995L208.33198784722222,22.045374338825532L211.31028645833334,103.01399355961216L214.28858506944442,140.65466532276739L217.26688368055557,84.56819960640536L220.24518229166665,110.01538941429722L223.22348090277777,177.7938111871481L226.2017795138889,112.59188938472006L229.180078125,193.38959414925841L232.15837673611114,104.61153442660967L235.13667534722222,19.91315248939726L238.11497395833334,144.81072873704963L241.09327256944445,171.74113884154292L244.07157118055557,40.110308478275925L247.04986979166665,155.54656585885417L250.0281684027778,170.65674657209053L253.00646701388888,119.08144442571533" style="fill: none;" fill="none"></path></g></g></g></g></g></g><g transform="translate(61, 178)" clip-path="url(#clip_1)"><clipPath id="clip_1"><rect width="268" height="22"></rect></clipPath><g><g><line x1="0" y1="0" x2="0" y2="5" style="visibility: inherit;" fill="rgb(0, 0, 0)" stroke="rgb(204, 204, 204)" stroke-width="1px"></line><line x1="29.78298611111111" y1="0" x2="29.78298611111111" y2="5" style="visibility: inherit;" fill="rgb(0, 0, 0)" stroke="rgb(204, 204, 204)" stroke-width="1px"></line><line x1="59.56597222222222" y1="0" x2="59.56597222222222" y2="5" style="visibility: inherit;" fill="rgb(0, 0, 0)" stroke="rgb(204, 204, 204)" stroke-width="1px"></line><line x1="89.34895833333333" y1="0" x2="89.34895833333333" y2="5" style="visibility: inherit;" fill="rgb(0, 0, 0)" stroke="rgb(204, 204, 204)" stroke-width="1px"></line><line x1="119.13194444444444" y1="0" x2="119.13194444444444" y2="5" style="visibility: inherit;" fill="rgb(0, 0, 0)" stroke="rgb(204, 204, 204)" stroke-width="1px"></line><line x1="148.91493055555557" y1="0" x2="148.91493055555557" y2="5" style="visibility: inherit;" fill="rgb(0, 0, 0)" stroke="rgb(204, 204, 204)" stroke-width="1px"></line><line x1="178.69791666666666" y1="0" x2="178.69791666666666" y2="5" style="visibility: inherit;" fill="rgb(0, 0, 0)" stroke="rgb(204, 204, 204)" stroke-width="1px"></line><line x1="208.48090277777777" y1="0" x2="208.48090277777777" y2="5" style="visibility: inherit;" fill="rgb(0, 0, 0)" stroke="rgb(204, 204, 204)" stroke-width="1px"></line><line x1="238.26388888888889" y1="0" x2="238.26388888888889" y2="5" style="visibility: inherit;" fill="rgb(0, 0, 0)" stroke="rgb(204, 204, 204)" stroke-width="1px"></line><line x1="268.046875" y1="0" x2="268.046875" y2="5" style="visibility: inherit;" fill="rgb(0, 0, 0)" stroke="rgb(204, 204, 204)" stroke-width="1px"></line></g><g transform="translate(0, 8)"><text x="0" y="0" dx="0em" dy="0.95em" style="text-anchor: middle; visibility: hidden; font-family: Roboto, sans-serif; font-size: 12px; font-weight: 200;" fill="rgb(50, 49, 63)" stroke="none" stroke-width="1px">-200</text><text x="29.78298611111111" y="0" dx="0em" dy="0.95em" style="text-anchor: middle; visibility: inherit; font-family: Roboto, sans-serif; font-size: 12px; font-weight: 200;" fill="rgb(50, 49, 63)" stroke="none" stroke-width="1px">0</text><text x="59.56597222222222" y="0" dx="0em" dy="0.95em" style="text-anchor: middle; visibility: inherit; font-family: Roboto, sans-serif; font-size: 12px; font-weight: 200;" fill="rgb(50, 49, 63)" stroke="none" stroke-width="1px">200</text><text x="89.34895833333333" y="0" dx="0em" dy="0.95em" style="text-anchor: middle; visibility: inherit; font-family: Roboto, sans-serif; font-size: 12px; font-weight: 200;" fill="rgb(50, 49, 63)" stroke="none" stroke-width="1px">400</text><text x="119.13194444444444" y="0" dx="0em" dy="0.95em" style="text-anchor: middle; visibility: inherit; font-family: Roboto, sans-serif; font-size: 12px; font-weight: 200;" fill="rgb(50, 49, 63)" stroke="none" stroke-width="1px">600</text><text x="148.91493055555557" y="0" dx="0em" dy="0.95em" style="text-anchor: middle; visibility: inherit; font-family: Roboto, sans-serif; font-size: 12px; font-weight: 200;" fill="rgb(50, 49, 63)" stroke="none" stroke-width="1px">800</text><text x="178.69791666666666" y="0" dx="0em" dy="0.95em" style="text-anchor: middle; visibility: inherit; font-family: Roboto, sans-serif; font-size: 12px; font-weight: 200;" fill="rgb(50, 49, 63)" stroke="none" stroke-width="1px">1k</text><text x="208.48090277777777" y="0" dx="0em" dy="0.95em" style="text-anchor: middle; visibility: inherit; font-family: Roboto, sans-serif; font-size: 12px; font-weight: 200;" fill="rgb(50, 49, 63)" stroke="none" stroke-width="1px">1.2k</text><text x="238.26388888888889" y="0" dx="0em" dy="0.95em" style="text-anchor: middle; visibility: inherit; font-family: Roboto, sans-serif; font-size: 12px; font-weight: 200;" fill="rgb(50, 49, 63)" stroke="none" stroke-width="1px">1.4k</text><text x="268.046875" y="0" dx="0em" dy="0.95em" style="text-anchor: middle; visibility: hidden; font-family: Roboto, sans-serif; font-size: 12px; font-weight: 200;" fill="rgb(50, 49, 63)" stroke="none" stroke-width="1px">1.6k</text></g><line x1="0" y1="0" x2="268.046875" y2="0" fill="rgb(0, 0, 0)" stroke="rgb(204, 204, 204)" stroke-width="1px"></line></g></g></g></g></svg>